<svg version="1.1" xmlns="http://www.w3.org/2000/svg" xmlns:xlink="http://www.w3.org/1999/xlink" x="0" y="0" width="261.2" height="82.207" viewBox="0, 0, 261.2, 82.207">
  <defs>
    <linearGradient id="Gradient_1" gradientUnits="userSpaceOnUse" x1="480.238" y1="71.613" x2="542.063" y2="-2.066" gradientTransform="matrix(-1, 0, 0, 1, 554.226, 0)">
      <stop offset="0.006" stop-color="#6D9D31"/>
      <stop offset="0.736" stop-color="#005956"/>
    </linearGradient>
    <linearGradient id="Gradient_2" gradientUnits="userSpaceOnUse" x1="479.502" y1="74.96" x2="544.874" y2="-2.948" gradientTransform="matrix(-1, 0, 0, 1, 554.226, 0)">
      <stop offset="0.006" stop-color="#FFF200"/>
      <stop offset="0.539" stop-color="#FFCB05"/>
    </linearGradient>
  </defs>
  <g id="Layer_1" transform="translate(-1.6, -4.893)">
    <path d="M5.7,23.8 L5.7,23.8 C7.6,31.3 9.6,39.1 10.6,42.4 C12.9,49.4 15.6,50.7 18.1,53.2 C19.1,54.2 25.4,59.9 32.5,66.4 C25.3,56.3 22.7,40.8 21.9,27.2 C13.8,24.3 8.5,23.8 5.7,23.8 z M21.7,22.4 C21.5,15.3 21.7,9.1 22,5 C10,5.4 1.6,6.8 1.6,6.8 C1.6,6.8 2.9,12.3 4.6,19 L4.6,19 C9.7,19.3 15.1,20.1 21.7,22.4 z M40.7,73.7 C48.6,80.8 55.6,87.1 55.6,87.1 C56.7,80.6 57.6,74.4 58.3,68.5 C54.2,74.1 47.4,77 40.7,73.7 z M62.3,8.7 C50.6,5.7 38.2,4.8 27.7,4.9 C26.8,9.1 25.6,15.9 25.2,23.8 C31.9,26.5 39.7,30.7 49.5,37.2 C55.1,40.9 58.5,45.3 60.3,49.7 C62.9,23.8 62.3,8.7 62.3,8.7 z" fill="url(#Gradient_1)"/>
    <path d="M42.8,37.2 C35.7,33.1 29.9,30.3 25.1,28.2 C25,38.7 26.9,50.9 34.1,60.9 C50.3,83.6 70.9,53.4 42.8,37.2 z" fill="url(#Gradient_2)"/>
    <path d="M84.1,27.3 L84.1,26.6 C85.3,26.4 85.5,26.2 85.2,25.3 C85,24.6 84.6,23.6 84.2,22.6 L80.1,22.6 C79.8,23.3 79.5,24.2 79.3,25 C78.9,26.1 79.1,26.4 80.6,26.6 L80.6,27.3 L76,27.3 L76,26.6 C77.3,26.4 77.6,26.2 78.3,24.4 L82.6,13.7 L83.5,13.5 C84.8,17.1 86.1,20.8 87.5,24.4 C88.2,26.2 88.5,26.5 89.8,26.6 L89.8,27.3 L84.1,27.3 z M82.2,16.9 L82.2,16.9 C81.5,18.5 81,20.1 80.4,21.7 L83.9,21.7 L82.2,16.9 z" fill="#005956"/>
    <path d="M109.6,14.5 C108.5,14.6 108,14.8 107.9,15.8 C107.8,16.4 107.7,17.4 107.7,19.3 L107.7,27.6 L106.8,27.6 L98.2,17 L98.2,17 L98.2,21.8 C98.2,23.7 98.3,24.6 98.3,25.2 C98.4,26.2 98.8,26.5 100.3,26.6 L100.3,27.3 L95.3,27.3 L95.3,26.6 C96.5,26.5 97,26.2 97,25.3 C97.1,24.6 97.2,23.7 97.2,21.8 L97.2,17.4 C97.2,16 97.2,15.7 96.8,15.2 C96.4,14.7 95.9,14.5 95,14.4 L95,13.7 L98.5,13.7 L106.7,23.3 L106.8,23.3 L106.8,19.1 C106.8,17.3 106.7,16.3 106.7,15.7 C106.6,14.8 106.1,14.5 104.6,14.4 L104.6,13.7 L109.6,13.7 L109.6,14.5 z" fill="#005956"/>
    <path d="M129.5,14.5 C128.4,14.6 127.9,14.8 127.8,15.8 C127.7,16.4 127.6,17.4 127.6,19.3 L127.6,27.6 L126.7,27.6 L118.1,17 L118.1,17 L118.1,21.8 C118.1,23.7 118.2,24.6 118.2,25.2 C118.3,26.2 118.7,26.5 120.2,26.6 L120.2,27.3 L115.2,27.3 L115.2,26.6 C116.4,26.5 116.9,26.2 116.9,25.3 C117,24.6 117.1,23.7 117.1,21.8 L117.1,17.4 C117.1,16 117.1,15.7 116.7,15.2 C116.3,14.7 115.8,14.5 114.9,14.4 L114.9,13.7 L118.4,13.7 L126.6,23.3 L126.7,23.3 L126.7,19.1 C126.7,17.3 126.6,16.3 126.6,15.7 C126.5,14.8 126,14.5 124.5,14.4 L124.5,13.7 L129.5,13.7 L129.5,14.5 z" fill="#005956"/>
    <path d="M142.1,27.3 L142.1,26.6 C143.3,26.4 143.5,26.2 143.2,25.3 C143,24.6 142.6,23.6 142.2,22.6 L138.1,22.6 C137.8,23.3 137.5,24.2 137.3,25 C136.9,26.1 137.1,26.4 138.6,26.6 L138.6,27.3 L134,27.3 L134,26.6 C135.3,26.4 135.6,26.2 136.3,24.4 L140.6,13.7 L141.5,13.5 C142.8,17.1 144.1,20.8 145.5,24.4 C146.2,26.2 146.5,26.5 147.8,26.6 L147.8,27.3 L142.1,27.3 z M140.2,16.9 L140.2,16.9 C139.5,18.5 139,20.1 138.4,21.7 L141.9,21.7 L140.2,16.9 z" fill="#005956"/>
    <path d="M167.6,14.5 C166.5,14.6 166,14.8 165.9,15.8 C165.8,16.4 165.7,17.4 165.7,19.3 L165.7,27.6 L164.8,27.6 L156.2,17 L156.2,17 L156.2,21.8 C156.2,23.7 156.3,24.6 156.3,25.2 C156.4,26.2 156.8,26.5 158.3,26.6 L158.3,27.3 L153.3,27.3 L153.3,26.6 C154.5,26.5 155,26.2 155,25.3 C155.1,24.6 155.2,23.7 155.2,21.8 L155.2,17.4 C155.2,16 155.2,15.7 154.8,15.2 C154.4,14.7 153.9,14.5 153,14.4 L153,13.7 L156.5,13.7 L164.7,23.3 L164.8,23.3 L164.8,19.1 C164.8,17.3 164.7,16.3 164.7,15.7 C164.6,14.8 164.1,14.5 162.7,14.4 L162.7,13.7 L167.7,13.7 L167.7,14.5 z" fill="#005956"/>
    <path d="M179.5,13.9 C182.1,13.9 184.1,14.4 185.4,15.7 C186.4,16.7 187.2,18.2 187.2,20.1 C187.2,22.6 186.2,24.4 184.6,25.7 C183.1,26.9 180.9,27.4 178.4,27.4 L173.2,27.4 L173.2,26.7 C174.9,26.6 175.1,26.4 175.1,24.7 L175.1,16.6 C175.1,14.8 174.9,14.7 173.4,14.6 L173.4,13.9 L179.5,13.9 z M177.5,24.5 C177.5,26 178,26.5 179.4,26.5 C182.6,26.5 184.5,24 184.5,20.5 C184.5,18.5 183.8,16.8 182.6,15.8 C181.7,15 180.6,14.7 179.2,14.7 C178.4,14.7 177.9,14.8 177.8,15 C177.6,15.2 177.6,15.5 177.6,16.2 L177.6,24.5 z" fill="#005956"/>
    <path d="M200.2,27.3 L200.2,26.6 C201.4,26.4 201.6,26.2 201.3,25.3 C201.1,24.6 200.7,23.6 200.3,22.6 L196.2,22.6 C195.9,23.3 195.6,24.2 195.4,25 C195,26.1 195.2,26.4 196.7,26.6 L196.7,27.3 L192.1,27.3 L192.1,26.6 C193.4,26.4 193.7,26.2 194.4,24.4 L198.7,13.7 L199.6,13.5 C200.9,17.1 202.2,20.8 203.6,24.4 C204.3,26.2 204.6,26.5 205.9,26.6 L205.9,27.3 L200.2,27.3 z M198.3,16.9 L198.3,16.9 C197.6,18.5 197.1,20.1 196.5,21.7 L200,21.7 L198.3,16.9 z" fill="#005956"/>
    <path d="M221.9,23.9 C221.7,24.7 221.3,26.7 221.1,27.3 L211.3,27.3 L211.3,26.6 C213.1,26.5 213.3,26.3 213.3,24.6 L213.3,16.5 C213.3,14.7 213.1,14.6 211.5,14.5 L211.5,13.8 L217.5,13.8 L217.5,14.5 C215.9,14.6 215.7,14.7 215.7,16.5 L215.7,24.6 C215.7,25.6 215.8,26 216.2,26.2 C216.6,26.4 217.2,26.4 217.9,26.4 C218.9,26.4 219.6,26.3 220.1,25.7 C220.5,25.3 220.9,24.6 221.2,23.6 L221.9,23.9 z" fill="#005956"/>
    <path d="M238.3,24 C238.2,24.8 237.8,26.8 237.6,27.4 L227.2,27.4 L227.2,26.7 C229,26.6 229.2,26.4 229.2,24.7 L229.2,16.6 C229.2,14.8 229,14.7 227.5,14.5 L227.5,13.8 L237.1,13.8 C237.1,14.2 237.2,15.6 237.3,16.9 L236.6,17 C236.4,16.2 236.2,15.6 235.8,15.2 C235.5,14.8 234.9,14.6 233.6,14.6 L232.4,14.6 C231.7,14.6 231.6,14.6 231.6,15.3 L231.6,19.8 L233.2,19.8 C235,19.8 235.2,19.7 235.5,18.2 L236.2,18.2 L236.2,22.3 L235.5,22.3 C235.2,20.8 235,20.7 233.2,20.7 L231.6,20.7 L231.6,24.4 C231.6,25.4 231.7,25.9 232.1,26.1 C232.5,26.3 233.2,26.3 234.1,26.3 C235.4,26.3 236,26.2 236.5,25.6 C236.9,25.2 237.3,24.5 237.6,23.6 L238.3,24 z" fill="#005956"/>
    <path d="M91.9,47.5 C91.5,48.8 90.8,50.9 90.4,51.8 C89.7,52 87.2,52.5 85.3,52.5 C78.2,52.5 75.2,47.8 75.2,43.4 C75.2,37.7 79.5,33.9 85.9,33.9 C88.1,33.9 90.1,34.5 90.8,34.6 C91,36.1 91.2,37.3 91.4,38.9 L90.5,39.1 C89.7,36 87.7,35 85.3,35 C81.1,35 78.9,38.8 78.9,42.8 C78.9,47.9 81.7,51.2 85.6,51.2 C88.1,51.2 89.7,49.7 91,47 L91.9,47.5 z" fill="#005956"/>
    <path d="M118,35.3 C115.8,35.5 115.7,35.7 115.7,37.9 L115.7,48.6 C115.7,50.9 115.9,51.1 118,51.2 L118,52.1 L110,52.1 L110,51.2 C112.2,51 112.5,50.8 112.5,48.6 L112.5,43.4 L104.4,43.4 L104.4,48.6 C104.4,50.9 104.6,51.1 106.7,51.2 L106.7,52.1 L98.9,52.1 L98.9,51.2 C100.9,51 101.2,50.8 101.2,48.6 L101.2,37.9 C101.2,35.6 101,35.4 98.8,35.3 L98.8,34.4 L106.6,34.4 L106.6,35.3 C104.6,35.5 104.4,35.7 104.4,37.9 L104.4,42.1 L112.5,42.1 L112.5,37.9 C112.5,35.6 112.3,35.4 110.2,35.3 L110.2,34.4 L118,34.4 L118,35.3 z" fill="#005956"/>
    <path d="M141.4,52.4 C141.2,52.4 140.9,52.4 140.6,52.4 C137.6,52.3 136.6,51.6 135.4,49.8 C134.6,48.6 133.8,47 133,45.7 C132.5,44.9 132.1,44.6 131,44.6 L130.4,44.6 L130.4,48.7 C130.4,51 130.6,51.2 132.7,51.4 L132.7,52.3 L124.9,52.3 L124.9,51.4 C127,51.2 127.3,51 127.3,48.7 L127.3,37.9 C127.3,35.7 127.1,35.4 125,35.3 L125,34.4 L132.3,34.4 C134.6,34.4 135.9,34.6 137,35.4 C138.1,36.1 138.8,37.3 138.8,39 C138.8,41.4 137.3,42.7 135.4,43.5 C135.8,44.3 136.9,46.1 137.7,47.4 C138.7,48.9 139.2,49.7 139.8,50.3 C140.4,51 140.9,51.3 141.6,51.5 L141.4,52.4 z M131.2,43.4 C132.4,43.4 133.3,43.2 134,42.7 C135,41.9 135.4,40.8 135.4,39.4 C135.4,36.5 133.6,35.4 131.9,35.4 C131.2,35.4 130.8,35.5 130.6,35.7 C130.4,35.9 130.4,36.2 130.4,36.8 L130.4,43.5 L131.2,43.5 z" fill="#005956"/>
    <path d="M148.3,52.1 L148.3,51.2 C150.4,51 150.6,50.8 150.6,48.5 L150.6,37.9 C150.6,35.6 150.4,35.4 148.3,35.2 L148.3,34.3 L156.1,34.3 L156.1,35.2 C154,35.4 153.8,35.6 153.8,37.9 L153.8,48.5 C153.8,50.8 154,51 156.1,51.2 L156.1,52.1 L148.3,52.1 z" fill="#005956"/>
    <path d="M172.8,38.7 C172.3,37 171.4,35 169.1,35 C167.4,35 166.3,36.3 166.3,37.8 C166.3,39.5 167.4,40.4 169.7,41.6 C172.3,42.9 174.5,44.3 174.5,47.2 C174.5,50.2 171.9,52.6 168.1,52.6 C167.1,52.6 166.1,52.4 165.4,52.2 C164.7,52 164.2,51.8 163.8,51.6 C163.6,50.9 163.2,48.7 163,47.1 L163.9,46.8 C164.4,48.5 165.9,51.5 168.5,51.5 C170.3,51.5 171.4,50.3 171.4,48.5 C171.4,46.8 170.1,45.7 168,44.7 C165.6,43.5 163.3,42 163.3,39.2 C163.3,36.3 165.6,34 169.3,34 C170.9,34 172.3,34.4 173,34.7 C173.1,35.7 173.3,36.8 173.5,38.6 L172.8,38.7 z" fill="#005956"/>
    <path d="M196.2,38.9 C195.9,37.5 195.5,36.7 195.1,36.2 C194.6,35.7 194,35.5 192.3,35.5 L190.8,35.5 L190.8,48.6 C190.8,50.8 191,51.1 193.5,51.2 L193.5,52.1 L185,52.1 L185,51.2 C187.4,51 187.6,50.8 187.6,48.6 L187.6,35.5 L186.4,35.5 C184.1,35.5 183.6,35.8 183.2,36.3 C182.8,36.8 182.5,37.6 182.2,38.9 L181.3,38.9 C181.4,37 181.6,35.1 181.6,33.7 L182.2,33.7 C182.6,34.3 183,34.4 183.7,34.4 L194.6,34.4 C195.3,34.4 195.6,34.2 196.1,33.7 L196.7,33.7 C196.7,34.9 196.8,37.1 197,38.8 L196.2,38.9 z" fill="#005956"/>
    <path d="M204,52.1 L204,51.2 C206.1,51 206.3,50.8 206.3,48.5 L206.3,37.9 C206.3,35.6 206.1,35.4 204,35.2 L204,34.3 L211.8,34.3 L211.8,35.2 C209.7,35.4 209.5,35.6 209.5,37.9 L209.5,48.5 C209.5,50.8 209.7,51 211.8,51.2 L211.8,52.1 L204,52.1 z" fill="#005956"/>
    <path d="M229.3,52.1 L229.3,51.2 C230.9,51 231.1,50.7 230.7,49.5 C230.4,48.6 229.9,47.3 229.4,46 L224,46 C223.6,47 223.3,48 222.9,49.1 C222.4,50.6 222.6,50.9 224.6,51.1 L224.6,52 L218.6,52 L218.6,51.1 C220.4,50.9 220.7,50.6 221.7,48.3 L227.3,34.2 L228.5,33.9 C230.2,38.7 231.9,43.6 233.7,48.3 C234.6,50.7 235,51 236.7,51.2 L236.7,52.1 L229.3,52.1 z M226.9,38.5 L226.9,38.5 C226,40.6 225.3,42.7 224.5,44.8 L229.1,44.8 L226.9,38.5 z" fill="#005956"/>
    <path d="M262.8,35.3 C261.3,35.4 260.7,35.7 260.6,37 C260.5,37.8 260.4,39.1 260.4,41.6 L260.4,52.5 L259.3,52.5 L247.8,38.6 L247.7,38.6 L247.7,45 C247.7,47.5 247.8,48.7 247.9,49.5 C248,50.8 248.6,51.2 250.5,51.3 L250.5,52.2 L243.9,52.2 L243.9,51.3 C245.4,51.2 246.1,50.8 246.2,49.6 C246.3,48.7 246.4,47.5 246.4,45 L246.4,39.2 C246.4,37.3 246.3,37 245.9,36.3 C245.4,35.6 244.8,35.4 243.6,35.3 L243.6,34.4 L248.3,34.4 L259,47 L259.1,47 L259.1,41.5 C259.1,39.1 259,37.8 258.9,37 C258.8,35.8 258.2,35.4 256.2,35.3 L256.2,34.4 L262.8,34.4 L262.8,35.3 z" fill="#005956"/>
    <path d="M99.3,76.4 C98.8,78.3 97.8,81.3 97.1,82.6 C96,82.8 92.5,83.6 89.8,83.6 C79.5,83.6 75.2,76.8 75.2,70.5 C75.2,62.3 81.5,56.8 90.7,56.8 C93.9,56.8 96.7,57.6 97.8,57.9 C98.2,60.1 98.4,61.8 98.7,64.2 L97.4,64.5 C96.2,60 93.4,58.5 89.9,58.5 C83.9,58.5 80.6,63.9 80.6,69.8 C80.6,77.1 84.7,82 90.3,82 C93.8,82 96.2,79.9 98.2,75.9 L99.3,76.4 z" fill="#005956"/>
    <path d="M130.6,70 C130.6,78.5 124.5,83.7 117.2,83.7 C109.6,83.7 104,78 104,70.4 C104,63.5 108.9,56.9 117.7,56.9 C124.7,56.9 130.6,62.2 130.6,70 z M109.4,69.5 C109.4,76.5 112.8,82.1 118,82.1 C122,82.1 125.3,78.4 125.3,71.1 C125.3,63.1 121.7,58.5 116.9,58.5 C112.8,58.5 109.4,62.5 109.4,69.5 z" fill="#005956"/>
    <path d="M155.5,76.6 C155.2,78.1 154.4,82 154,83.1 L135.3,83.1 L135.3,81.8 C138.7,81.5 139,81.3 139,77.9 L139,62.6 C139,59.2 138.7,59 135.6,58.7 L135.6,57.4 L147,57.4 L147,58.7 C144,59 143.6,59.2 143.6,62.6 L143.6,78.1 C143.6,80 143.8,80.8 144.5,81.1 C145.2,81.4 146.4,81.5 147.7,81.5 C149.6,81.5 151,81.3 151.9,80.2 C152.7,79.4 153.4,78.1 154,76.2 L155.5,76.6 z" fill="#005956"/>
    <path d="M180.4,76.6 C180.1,78.1 179.3,82 178.9,83.1 L160.2,83.1 L160.2,81.8 C163.6,81.5 163.9,81.3 163.9,77.9 L163.9,62.6 C163.9,59.2 163.6,59 160.5,58.7 L160.5,57.4 L171.9,57.4 L171.9,58.7 C168.9,59 168.5,59.2 168.5,62.6 L168.5,78.1 C168.5,80 168.7,80.8 169.4,81.1 C170.1,81.4 171.3,81.5 172.6,81.5 C174.5,81.5 175.9,81.3 176.8,80.2 C177.5,79.4 178.3,78.1 178.9,76.2 L180.4,76.6 z" fill="#005956"/>
    <path d="M206.2,76.6 C206,78.2 205.2,81.8 204.8,83 L185.1,83 L185.1,81.7 C188.5,81.4 188.9,81.1 188.9,77.8 L188.9,62.6 C188.9,59.1 188.5,58.9 185.6,58.7 L185.6,57.4 L203.8,57.4 C203.8,58.2 204,60.9 204.2,63.2 L202.9,63.4 C202.5,61.9 202.1,60.8 201.4,60 C200.8,59.2 199.7,58.9 197.3,58.9 L195,58.9 C193.6,58.9 193.5,59 193.5,60.2 L193.5,69 L196.5,69 C200,69 200.4,68.8 200.9,66 L202.2,66 L202.2,73.8 L200.9,73.8 C200.4,71 200,70.8 196.6,70.8 L193.5,70.8 L193.5,77.8 C193.5,79.7 193.7,80.6 194.4,81 C195.1,81.4 196.5,81.4 198.2,81.4 C200.6,81.4 201.9,81.1 202.8,80.1 C203.5,79.3 204.3,78 204.9,76.3 L206.2,76.6 z" fill="#005956"/>
    <path d="M236.8,72.2 C234.7,72.6 234.5,72.8 234.5,75.3 L234.5,78.5 C234.5,79.9 234.5,81.2 234.8,82.2 C232.4,82.8 229,83.6 225.8,83.6 C216.8,83.6 211,78.3 211,70.5 C211,61.4 218.3,56.8 226.4,56.8 C229.6,56.8 232.7,57.6 234.1,57.9 C234.2,59.2 234.4,61.4 234.7,64.3 L233.4,64.6 C232.4,60.1 229.5,58.4 225.7,58.4 C220.5,58.4 216.3,62.7 216.3,69.9 C216.3,75.8 219.4,82.1 226.3,82.1 C227.3,82.1 228.3,81.9 228.9,81.5 C229.6,81.1 229.9,80.5 229.9,79.2 L229.9,75.6 C229.9,72.8 229.7,72.5 225.6,72.2 L225.6,71 L236.8,71 L236.8,72.2 z" fill="#005956"/>
    <path d="M262.6,76.6 C262.4,78.2 261.6,81.8 261.2,83 L241.5,83 L241.5,81.7 C244.9,81.4 245.3,81.1 245.3,77.8 L245.3,62.6 C245.3,59.1 244.9,58.9 242,58.7 L242,57.4 L260.2,57.4 C260.2,58.2 260.4,60.9 260.6,63.2 L259.3,63.4 C258.9,61.9 258.5,60.8 257.8,60 C257.2,59.2 256.1,58.9 253.7,58.9 L251.4,58.9 C250,58.9 249.9,59 249.9,60.2 L249.9,69 L252.9,69 C256.4,69 256.8,68.8 257.3,66 L258.6,66 L258.6,73.8 L257.3,73.8 C256.8,71 256.4,70.8 253,70.8 L249.9,70.8 L249.9,77.8 C249.9,79.7 250.1,80.6 250.8,81 C251.6,81.4 252.9,81.4 254.6,81.4 C257,81.4 258.3,81.1 259.2,80.1 C260,79.3 260.7,78 261.3,76.3 L262.6,76.6 z" fill="#005956"/>
  </g>
</svg>
